<?xml version="1.0" standalone="no"?>
<!DOCTYPE svg PUBLIC "-//W3C//DTD SVG 20010904//EN"
 "http://www.w3.org/TR/2001/REC-SVG-20010904/DTD/svg10.dtd">
<svg version="1.0" xmlns="http://www.w3.org/2000/svg"
 width="512.000000pt" height="512.000000pt" viewBox="0 0 512.000000 512.000000"
 preserveAspectRatio="xMidYMid meet">

<g transform="translate(0.000000,512.000000) scale(0.100000,-0.100000)"
fill="#000000" stroke="none">
<path d="M4048 5074 c-39 -20 -72 -88 -63 -128 3 -17 6 -44 6 -59 0 -29 -57
-152 -90 -195 l-17 -23 -65 39 c-264 161 -597 274 -954 324 -117 17 -493 17
-610 0 -578 -81 -1063 -319 -1455 -712 -393 -395 -633 -883 -712 -1450 -16
-122 -17 -497 0 -615 81 -577 318 -1061 712 -1455 440 -440 1011 -693 1641
-727 108 -5 118 -8 124 -27 l8 -21 4 21 c4 19 13 22 114 28 802 48 1505 451
1944 1111 221 333 347 681 401 1105 18 147 15 441 -6 590 -72 498 -268 939
-578 1297 -36 42 -52 68 -48 80 3 10 35 63 71 117 36 55 65 104 65 108 0 12
13 10 38 -7 17 -13 26 -13 43 -5 17 10 20 17 14 47 -12 66 -36 103 -66 103
-17 0 -39 11 -57 30 -29 28 -82 43 -66 19 4 -8 -4 -9 -27 -5 -19 3 -28 3 -21
0 20 -9 14 -23 -8 -17 -11 3 -17 9 -14 14 3 5 0 9 -5 9 -6 0 -11 -16 -11 -35
0 -28 4 -35 20 -35 11 0 20 -5 20 -11 0 -20 -71 -194 -88 -217 l-17 -22 -80
71 c-44 38 -107 91 -141 115 l-61 46 23 61 c13 34 34 84 48 111 15 27 26 55
26 62 0 6 17 19 39 27 76 31 106 105 73 180 -16 35 -26 45 -59 55 -52 16 -82
15 -115 -4z m-1178 -75 c324 -56 610 -154 860 -294 108 -61 137 -81 130 -89
-4 -3 -33 11 -65 31 -219 132 -509 245 -762 298 -339 70 -742 62 -1123 -21
-16 -4 -22 -2 -15 4 13 13 157 48 280 68 232 37 489 38 695 3z m63 -128 c50
-15 78 -32 135 -77 23 -19 23 -21 7 -20 -11 1 -47 14 -79 29 -32 15 -61 25
-63 23 -2 -2 9 -10 26 -17 16 -7 28 -16 25 -20 -4 -7 28 -22 48 -24 3 0 10 -3
14 -7 12 -12 -18 -9 -61 7 -22 8 -49 14 -60 14 -11 0 -2 -6 20 -13 53 -17 118
-51 134 -69 10 -13 9 -15 -11 -9 -21 5 -22 4 -9 -12 13 -15 12 -16 -15 -6 -29
10 -29 10 6 -21 23 -20 27 -26 12 -19 -12 6 -44 10 -70 8 l-47 -3 40 -8 c22
-5 49 -12 60 -17 15 -7 13 -8 -9 -3 -22 5 -27 3 -21 -7 6 -10 4 -12 -10 -6
-11 4 -40 9 -65 12 -36 4 -29 0 39 -21 111 -34 128 -44 76 -46 l-40 -2 40 -6
c39 -6 38 -7 -27 -15 -37 -4 -80 -11 -95 -16 -25 -7 -24 -8 17 -10 25 -1 54
-5 64 -9 19 -7 18 -8 -4 -14 -13 -3 -22 -9 -19 -11 3 -3 19 -2 37 3 35 10 41
6 62 -49 18 -47 70 -122 97 -143 13 -10 2 12 -27 55 -48 69 -70 119 -30 68 11
-14 39 -46 62 -73 23 -26 43 -54 44 -63 1 -9 6 -19 10 -22 4 -4 4 1 1 10 -3
10 -1 20 5 24 6 4 8 3 4 -4 -3 -6 -2 -13 4 -17 6 -4 8 -11 4 -16 -3 -6 2 -19
12 -30 9 -10 14 -19 9 -19 -4 0 -2 -7 5 -15 24 -29 4 -14 -54 40 -33 30 -62
52 -65 49 -3 -3 12 -21 33 -40 22 -19 36 -34 33 -34 -8 0 -10 1 -106 48 -60
29 -65 30 -78 14 -14 -19 -13 -43 2 -44 6 -1 53 -22 105 -48 83 -42 133 -63
150 -65 23 -2 84 -73 85 -98 0 -5 8 -14 18 -21 22 -17 22 -20 -8 -64 -28 -41
-33 -36 -9 9 14 28 14 33 -2 57 -10 16 -19 22 -22 14 -2 -6 -8 -12 -14 -12 -6
0 -8 7 -4 15 4 10 -1 15 -16 15 -12 0 -30 7 -40 17 -15 14 -18 14 -18 1 0 -8
10 -20 23 -26 21 -10 20 -11 -9 -11 -17 -1 -37 6 -44 14 -7 8 -16 12 -21 9
-18 -11 -8 -38 27 -70 19 -19 30 -34 23 -34 -24 0 -79 42 -85 66 -8 33 -24 30
-24 -4 0 -16 -9 -37 -20 -47 -23 -21 -39 -13 -21 9 7 8 11 27 9 43 -3 23 -8
28 -35 29 -40 2 -103 30 -104 47 -1 7 0 19 1 27 1 8 -2 12 -6 7 -4 -4 -19 16
-32 45 -22 47 -26 51 -34 33 -6 -14 -5 -31 3 -50 7 -17 14 -38 16 -49 3 -16 1
-17 -14 -5 -15 13 -15 12 -6 -6 8 -14 8 -25 1 -40 -14 -26 -38 -49 -38 -37 0
5 7 15 15 22 8 7 15 20 14 29 0 12 -2 11 -9 -4 -4 -12 -15 -27 -24 -34 -9 -7
-14 -17 -11 -21 2 -4 -7 -12 -20 -18 -36 -17 -32 3 10 49 19 22 35 48 35 59 0
33 -15 23 -31 -22 -8 -23 -26 -48 -40 -57 -22 -14 -23 -14 -12 0 15 19 29 154
17 162 -5 2 -30 2 -55 -2 -50 -8 -94 2 -84 19 3 5 2 10 -4 10 -6 0 -8 7 -5 15
4 8 2 15 -2 15 -5 0 -10 12 -11 28 -1 15 -4 41 -7 57 -8 39 14 69 43 60 28 -9
27 -25 -1 -17 -21 5 -21 4 -5 -19 9 -13 17 -32 17 -42 0 -10 5 -15 11 -12 6 4
8 13 5 20 -5 13 10 32 27 34 14 2 12 8 -13 39 -14 18 -30 32 -37 32 -7 0 -10
7 -7 15 4 9 11 15 18 14 6 -1 19 -1 30 0 28 2 3 26 -30 29 -34 3 -70 -34 -53
-55 9 -10 8 -13 -5 -13 -9 0 -21 -9 -28 -20 -7 -11 -21 -20 -30 -20 -20 0 -28
-26 -26 -80 2 -54 -12 -102 -28 -96 -8 3 -14 -2 -15 -12 -2 -22 -2 -24 6 -47
7 -20 6 -20 -9 -1 -9 11 -16 15 -16 8 0 -6 6 -17 13 -24 11 -10 9 -20 -11 -55
-13 -24 -33 -48 -43 -54 -16 -8 -17 -14 -9 -32 10 -21 10 -21 -4 -4 -16 21
-11 47 10 47 20 0 17 14 -8 36 -20 18 -21 18 -15 1 5 -12 3 -16 -4 -11 -7 4
-9 23 -4 53 3 25 8 57 9 71 2 14 10 26 19 28 24 5 21 17 -9 48 l-27 26 7 -42
c4 -27 3 -39 -4 -35 -5 3 -10 2 -10 -4 0 -5 5 -13 10 -16 16 -10 11 -25 -9
-25 -10 0 -24 -7 -31 -15 -23 -27 -28 -6 -14 62 26 126 22 118 46 97 20 -18
21 -18 15 -1 -4 10 0 31 8 47 8 16 15 33 15 38 0 5 -22 19 -49 32 l-50 23 6
71 c8 109 19 143 47 148 14 3 31 -1 38 -8 11 -10 19 -7 46 17 34 30 24 38 -18
14 -33 -19 -40 -18 -40 4 0 11 12 23 30 31 17 7 33 17 36 21 7 11 -39 -6 -69
-26 -22 -14 -23 -13 -22 8 0 37 31 74 77 91 38 14 39 16 11 11 -18 -2 -33 0
-33 5 0 6 4 10 9 10 5 0 41 18 80 40 62 35 111 56 71 30 -21 -14 2 -13 37 2
15 6 64 15 108 19 l80 7 -87 -2 c-99 -3 -107 3 -21 14 66 8 101 5 176 -19z
m1087 -42 c0 -11 -4 -18 -9 -15 -5 4 -11 0 -14 -6 -2 -7 -8 -10 -12 -6 -5 5 0
17 10 28 23 25 25 25 25 -1z m-1560 -59 c-8 -5 -32 -10 -54 -10 -112 0 -369
-53 -541 -111 -97 -33 -290 -123 -394 -184 -72 -42 -232 -161 -244 -182 -4 -7
-14 -13 -21 -13 -8 0 -21 -11 -30 -25 -9 -14 -23 -25 -31 -25 -8 0 -15 -4 -15
-9 0 -5 -42 -51 -93 -102 -52 -52 -112 -116 -135 -144 -23 -27 -42 -44 -42
-37 0 7 11 23 25 36 14 13 25 27 25 31 0 4 41 52 91 107 321 347 769 583 1239
652 178 26 243 31 220 16z m1509 -32 c-1 -18 -3 -25 -6 -15 -2 9 -9 14 -14 11
-6 -3 -5 3 3 15 17 28 18 27 17 -11z m-19 -47 c0 -6 -4 -13 -10 -16 -5 -3 -10
1 -10 9 0 9 5 16 10 16 6 0 10 -4 10 -9z m-585 -62 c156 -60 385 -181 385
-201 0 -4 -30 11 -67 34 -87 53 -266 138 -365 173 -43 15 -78 29 -78 31 0 10
29 1 125 -37z m1046 -6 c12 -15 12 -16 -4 -10 -10 4 -23 7 -28 7 -6 0 -7 5 -4
10 9 15 21 12 36 -7z m-511 -54 c0 -11 -4 -17 -10 -14 -5 3 -10 15 -10 26 0
11 5 17 10 14 6 -3 10 -15 10 -26z m-836 12 c4 -5 -3 -7 -14 -4 -23 6 -26 13
-6 13 8 0 17 -4 20 -9z m1355 -63 c-8 -14 -14 -18 -17 -10 -4 13 17 46 25 38
3 -2 -1 -15 -8 -28z m-545 -18 l7 -25 -15 25 c-17 28 -21 50 -7 35 5 -6 12
-21 15 -35z m-574 16 c0 -9 7 -12 18 -10 9 3 26 -2 37 -11 19 -14 19 -15 1 -8
-31 11 -10 -13 23 -27 17 -7 29 -17 28 -24 -1 -6 5 -9 13 -8 8 2 12 0 7 -4 -4
-4 1 -16 10 -27 17 -19 17 -20 1 -14 -10 4 -18 3 -18 -2 0 -5 11 -12 25 -15
14 -4 25 -11 25 -16 0 -5 -8 -7 -17 -3 -10 3 -15 3 -11 -2 4 -4 15 -9 25 -10
49 -7 88 -35 48 -35 -22 0 -18 -12 14 -43 17 -15 33 -37 36 -48 4 -13 12 -18
22 -15 10 4 13 2 10 -7 -3 -7 1 -21 9 -32 17 -23 18 -35 3 -35 -5 0 -8 4 -5 9
3 5 -3 20 -14 32 -18 21 -19 22 -14 4 5 -17 2 -16 -15 5 -11 14 -21 31 -21 38
0 7 -4 11 -9 7 -12 -7 20 -64 49 -90 24 -22 26 -37 5 -28 -9 3 -33 31 -54 62
-22 31 -48 66 -60 78 -12 12 -21 27 -21 32 0 6 -13 17 -30 26 -29 15 -44 4
-17 -12 7 -4 29 -28 48 -53 18 -25 39 -48 44 -52 6 -5 6 -8 -2 -8 -7 0 -16 6
-20 14 -4 8 -30 40 -58 71 -124 141 -139 159 -116 140 l24 -20 -11 20 c-6 11
-18 29 -27 40 -15 19 -16 19 -11 1 5 -15 4 -17 -8 -7 -19 16 -27 81 -9 74 7
-3 13 -1 13 5 0 6 -6 13 -12 15 -7 3 -1 6 15 6 17 1 27 -4 27 -13z m774 -43
c88 -71 186 -163 186 -175 0 -5 -37 23 -83 64 -45 40 -105 91 -134 113 -48 37
-63 55 -47 55 4 0 39 -26 78 -57z m-237 25 c-3 -8 -6 -5 -6 6 -1 11 2 17 5 13
3 -3 4 -12 1 -19z m567 -23 c-6 -16 -24 -21 -24 -7 0 11 11 22 21 22 5 0 6 -7
3 -15z m76 6 c0 -13 -29 -35 -37 -28 -7 8 15 37 28 37 5 0 9 -4 9 -9z m-637
-21 c3 -11 1 -18 -4 -14 -5 3 -9 12 -9 20 0 20 7 17 13 -6z m-681 -62 c80 -96
94 -127 22 -53 -37 39 -70 69 -73 68 -4 -1 -7 7 -7 18 0 29 10 24 58 -33z
m658 22 c0 -5 -4 -10 -10 -10 -5 0 -10 5 -10 10 0 6 5 10 10 10 6 0 10 -4 10
-10z m-35 -20 c-3 -5 1 -25 9 -45 8 -19 13 -35 10 -35 -9 0 -35 71 -29 80 4 6
8 10 11 10 3 0 3 -4 -1 -10z m-25 -84 c0 -15 -7 -26 -20 -29 -25 -6 -25 2 -2
31 21 27 22 27 22 -2z m320 -143 c61 -64 38 -48 -58 40 -34 31 -74 64 -87 73
-14 9 -25 21 -25 26 0 14 108 -74 170 -139z m-1447 92 c-7 -21 -12 -19 -10 4
0 11 5 18 9 15 4 -3 5 -11 1 -19z m712 -25 c10 -11 16 -20 13 -20 -3 0 -13 9
-23 20 -10 11 -16 20 -13 20 3 0 13 -9 23 -20z m-2575 7 c0 -2 -15 -16 -32
-33 l-33 -29 29 33 c28 30 36 37 36 29z m2924 -23 c3 -8 2 -12 -4 -9 -6 3 -10
10 -10 16 0 14 7 11 14 -7z m-1814 -22 c89 -37 130 -57 130 -66 0 -4 -11 -5
-24 -2 -14 3 -27 2 -30 -3 -3 -5 6 -12 19 -15 14 -4 23 -11 20 -17 -4 -5 -1
-17 6 -25 7 -8 8 -14 3 -13 -5 1 -19 1 -32 0 -23 -1 -23 -1 5 -26 l28 -24 -25
-1 c-14 0 -32 -5 -40 -10 -12 -8 -9 -10 13 -10 15 0 30 -7 33 -15 4 -8 11 -12
18 -8 7 4 7 1 -1 -7 -10 -11 -10 -17 0 -29 10 -12 9 -14 -3 -9 -8 3 -26 9 -40
13 -25 8 -25 8 -6 -14 26 -28 8 -26 -28 4 -28 22 -30 29 -29 87 2 89 8 127 23
141 10 10 12 9 7 -5 -4 -10 -2 -18 2 -18 11 0 22 26 14 34 -13 12 -32 5 -38
-14 -4 -11 -11 -17 -17 -14 -6 4 -6 -1 1 -14 19 -36 12 -36 -17 1 l-29 36 2
-37 c0 -21 -5 -44 -14 -52 -13 -13 -11 -16 12 -24 30 -11 37 -27 8 -19 -10 2
-24 -2 -32 -10 -8 -8 -28 -22 -44 -31 -22 -12 -24 -15 -7 -11 12 4 22 2 22 -2
0 -10 -115 -115 -167 -153 -18 -13 -29 -28 -26 -34 3 -6 3 -8 -2 -4 -7 7 -82
-48 -115 -84 -17 -18 -109 -68 -126 -68 -13 0 -12 34 3 52 6 7 14 31 18 53 8
42 29 90 43 99 14 8 7 -26 -12 -62 -16 -32 -16 -32 2 -21 10 6 19 17 20 23 8
67 11 87 21 126 7 25 14 55 16 67 7 44 95 149 160 191 23 15 75 33 125 43 47
9 85 17 85 18 0 0 20 -7 45 -17z m1813 -32 c3 -11 2 -18 -3 -15 -4 3 -10 14
-13 25 -3 11 -2 18 3 15 4 -3 10 -14 13 -25z m-20 -21 c2 -8 7 -21 12 -29 7
-13 6 -13 -7 -2 -9 7 -18 24 -21 38 -3 16 -1 22 5 16 5 -5 10 -16 11 -23z
m794 -71 c119 -152 195 -274 283 -453 74 -150 169 -406 185 -500 14 -79 -14
-21 -49 103 -88 305 -246 608 -445 854 -39 48 -71 90 -71 93 0 19 28 -8 97
-97z m-3778 75 c-8 -10 -17 -20 -20 -23 -3 -3 -35 -47 -72 -98 -183 -256 -318
-543 -388 -825 -37 -147 -38 -151 -44 -145 -8 8 30 164 71 290 70 216 167 419
285 594 54 81 166 224 175 224 4 0 0 -8 -7 -17z m2661 -14 c6 -10 7 -19 3 -19
-4 0 -13 11 -20 25 -13 29 2 24 17 -6z m320 -38 c13 -19 18 -31 11 -27 -8 5
-16 4 -21 -3 -5 -9 -11 -9 -23 3 -12 13 -13 20 -4 40 7 14 12 24 13 23 0 -1
11 -17 24 -36z m-845 -1 c-4 -12 -9 -19 -12 -17 -3 3 -2 15 2 27 4 12 9 19 12
17 3 -3 2 -15 -2 -27z m-25 10 c0 -5 -5 -10 -11 -10 -5 0 -7 5 -4 10 3 6 8 10
11 10 2 0 4 -4 4 -10z m557 -16 c-3 -3 -12 -4 -19 -1 -8 3 -5 6 6 6 11 1 17
-2 13 -5z m63 -34 c0 -5 -5 -10 -11 -10 -5 0 -7 5 -4 10 3 6 8 10 11 10 2 0 4
-4 4 -10z m184 -52 c-4 -13 -7 -28 -6 -35 2 -6 -3 -15 -9 -19 -9 -5 -10 -2 -5
12 6 15 5 17 -5 7 -26 -26 -32 -12 -6 15 15 15 27 34 27 42 0 7 3 11 6 7 3 -3
2 -16 -2 -29z m-176 3 c12 -11 22 -24 22 -30 0 -15 -27 -14 -36 1 -4 7 -3 8 4
4 21 -13 13 5 -10 25 -13 10 -18 18 -13 18 6 0 20 -8 33 -18z m-651 -33 c-3
-8 -6 -5 -6 6 -1 11 2 17 5 13 3 -3 4 -12 1 -19z m-228 -52 c-3 -3 -11 5 -18
17 -13 21 -12 21 5 5 10 -10 16 -20 13 -22z m1131 4 c0 -11 -4 -20 -9 -20 -5
0 -7 9 -4 20 3 11 7 20 9 20 2 0 4 -9 4 -20z m711 -123 c44 -66 105 -170 136
-231 58 -115 127 -285 120 -293 -3 -2 -21 39 -42 92 -69 179 -136 297 -315
558 -14 21 -14 21 3 8 10 -8 54 -68 98 -134z m-1845 103 c25 -10 26 -12 10
-23 -17 -12 -17 -14 0 -28 16 -12 17 -12 11 4 -10 27 2 20 22 -14 11 -18 17
-39 13 -47 -3 -10 -1 -13 6 -8 6 3 16 -2 21 -13 15 -28 14 -36 -4 -21 -13 11
-14 10 -10 -3 4 -8 14 -17 24 -20 10 -2 21 -15 24 -28 l6 -24 -18 24 c-15 20
-19 21 -24 7 -4 -9 2 -21 13 -29 11 -8 17 -17 12 -22 -4 -4 2 -5 12 -1 15 5
17 4 7 -8 -14 -17 4 -26 57 -26 43 0 92 -16 143 -46 20 -12 47 -25 60 -29 13
-4 29 -12 36 -17 7 -5 17 -7 23 -3 5 3 13 -1 16 -9 3 -9 10 -13 15 -10 5 3 18
2 29 -1 15 -5 18 -10 11 -23 -6 -12 -3 -24 10 -41 22 -27 24 -75 6 -110 -14
-27 -34 -29 -29 -3 2 9 4 31 6 48 2 17 7 38 12 45 6 12 5 12 -8 1 -9 -7 -19
-24 -22 -37 -4 -14 -11 -25 -17 -25 -7 0 -8 7 -4 18 15 39 17 73 4 88 -7 9
-39 29 -70 45 -32 16 -79 42 -105 59 -80 50 -117 41 -182 -45 -15 -20 -20 -24
-16 -10 5 17 2 16 -15 -5 -14 -17 -21 -20 -21 -10 0 13 -1 13 -10 0 -7 -10
-10 -11 -10 -2 0 18 72 92 90 92 9 0 2 11 -18 26 -18 14 -29 30 -26 36 3 5 -3
18 -15 29 -12 11 -21 26 -21 33 0 7 -9 21 -20 31 -24 22 -25 14 -4 -26 8 -17
13 -33 11 -36 -3 -2 -11 8 -19 24 -8 15 -30 57 -49 93 -39 75 -46 101 -20 73
10 -10 17 -21 14 -25 -5 -9 28 -61 34 -54 2 2 0 12 -6 23 -19 36 -35 93 -25
93 1 0 15 -5 30 -10z m1084 -6 c0 -2 -9 -4 -21 -4 -11 0 -18 4 -14 10 5 8 35
3 35 -6z m-2787 -9 c-3 -9 -8 -14 -10 -11 -3 3 -2 9 2 15 9 16 15 13 8 -4z
m892 -25 c-24 -26 -15 -33 43 -36 60 -2 99 -17 107 -43 3 -10 19 -24 35 -30
17 -5 30 -14 30 -19 0 -19 -38 -42 -90 -53 -30 -6 -56 -12 -58 -14 -1 -1 4
-17 12 -36 13 -31 20 -36 77 -48 57 -13 65 -13 93 3 29 17 31 17 43 0 16 -22
17 -65 1 -98 -9 -21 -14 -24 -25 -14 -12 10 -13 7 -7 -18 4 -16 11 -35 16 -41
24 -31 -27 -118 -108 -185 -34 -28 -53 -37 -68 -32 -11 3 -28 7 -36 10 -9 2
-29 0 -46 -5 -20 -6 -40 -5 -60 4 -61 26 -162 164 -149 204 3 10 -2 40 -10 65
-23 66 -17 120 13 124 12 2 22 -1 22 -6 0 -18 55 -23 113 -11 52 12 60 17 73
48 8 19 13 35 12 36 -7 6 -166 39 -188 39 -19 1 -25 -4 -25 -19 0 -11 -3 -25
-8 -32 -10 -15 -97 -44 -97 -32 0 5 3 9 8 9 4 0 31 20 59 45 28 25 57 44 64
43 7 -2 18 7 24 20 7 12 22 33 33 45 11 12 20 27 20 32 0 6 15 18 35 27 19 10
38 22 42 28 3 5 9 10 12 10 3 0 -2 -9 -12 -20z m1619 -69 c-29 -54 -38 -61
-48 -35 -3 8 -2 13 2 10 5 -3 21 15 37 40 37 59 44 49 9 -15z m674 9 c8 0 13
-3 9 -6 -10 -10 -48 7 -40 19 5 8 8 8 11 -1 2 -7 11 -12 20 -12z m-2378 5 c0
-2 -10 -10 -22 -16 -21 -11 -22 -11 -9 4 13 16 31 23 31 12z m635 -85 c3 -6
-1 -7 -9 -4 -18 7 -21 14 -7 14 6 0 13 -4 16 -10z m1030 -10 c-10 -11 -20 -18
-23 -16 -5 6 21 35 32 36 5 0 1 -9 -9 -20z m-65 -4 c0 -2 -7 -7 -16 -10 -8 -3
-12 -2 -9 4 6 10 25 14 25 6z m101 -9 c-6 -8 -8 -17 -4 -20 3 -4 -1 -7 -10 -7
-10 0 -14 -5 -11 -15 7 -16 -1 -18 -30 -6 -17 6 -15 10 14 34 33 29 61 38 41
14z m479 -21 c0 -5 -178 -106 -187 -106 -7 0 44 32 137 88 34 20 50 26 50 18z
m-1210 -28 c0 -6 7 -20 17 -30 9 -10 13 -21 10 -24 -3 -4 -15 9 -26 27 -23 37
-27 54 -11 44 6 -3 10 -11 10 -17z m1334 -17 c-3 -3 -15 6 -27 18 l-22 24 27
-19 c14 -10 24 -21 22 -23z m-1589 19 c3 -6 -1 -7 -9 -4 -18 7 -21 14 -7 14 6
0 13 -4 16 -10z m1062 -22 c-3 -7 -5 -2 -5 12 0 14 2 19 5 13 2 -7 2 -19 0
-25z m437 7 c-13 -10 -15 -14 -5 -15 8 0 12 -2 9 -5 -3 -3 -13 -3 -22 1 -15 6
-15 7 1 20 10 7 22 14 27 14 6 0 1 -7 -10 -15z m-1528 -16 c-15 -9 -16 -13 -5
-20 20 -13 27 -11 31 8 2 13 6 11 14 -8 11 -24 10 -25 -18 -23 -17 1 -34 8
-39 15 -9 15 7 39 25 39 6 0 3 -5 -8 -11z m982 -14 c-3 -3 -9 2 -12 12 -6 14
-5 15 5 6 7 -7 10 -15 7 -18z m-318 -6 c0 -11 -4 -17 -10 -14 -5 3 -10 13 -10
21 0 8 5 14 10 14 6 0 10 -9 10 -21z m262 -71 c-14 -32 -29 -58 -34 -58 -5 0
-6 -4 -3 -10 3 -5 1 -10 -5 -10 -6 0 -8 -4 -5 -10 3 -5 1 -10 -6 -10 -8 0 -7
-5 2 -17 13 -15 12 -15 -9 -4 -27 15 -25 25 24 128 28 58 38 70 48 61 10 -10
8 -23 -12 -70z m-1801 48 c1 -6 0 -21 -1 -33 -1 -13 3 -23 9 -23 6 0 11 12 11
28 1 24 2 25 11 8 8 -13 8 -38 1 -87 -6 -38 -8 -79 -5 -91 5 -22 5 -22 -9 -4
-13 17 -15 14 -26 -35 -7 -30 -13 -65 -15 -79 l-4 -25 -10 25 c-10 24 -10 23
-17 -12 -5 -27 -11 -36 -21 -31 -9 3 -15 -1 -15 -8 0 -8 -8 -23 -17 -34 l-15
-20 5 20 c2 11 8 29 12 40 4 11 -2 7 -14 -10 -11 -16 -21 -25 -21 -20 0 6 12
24 26 40 14 17 23 24 19 18 -9 -18 0 -16 16 4 10 11 10 14 2 9 -18 -10 -16 1
6 32 25 35 37 244 14 235 -9 -4 -7 6 7 29 19 33 49 47 51 24z m1344 -40 c11 5
14 2 9 -12 -3 -11 -8 -25 -10 -33 -4 -11 -7 -12 -16 -3 -17 17 -38 15 -45 -4
-4 -11 2 -23 16 -33 l22 -16 -35 -80 c-19 -44 -39 -81 -45 -83 -6 -2 -8 -8 -5
-13 10 -16 -37 -129 -53 -129 -11 0 -13 -8 -9 -32 3 -18 3 -26 0 -18 -4 8 -13
23 -22 33 -14 15 -14 17 0 17 9 0 21 6 27 14 9 11 6 12 -14 8 -24 -4 -25 -2
-23 34 2 22 8 42 13 46 6 5 3 8 -7 8 -21 0 -17 49 5 62 9 5 14 15 10 23 -5 16
13 45 28 45 5 0 9 -8 9 -17 1 -10 21 32 45 92 25 61 45 112 44 115 0 3 -13
-11 -29 -30 -17 -19 -30 -29 -30 -23 0 6 12 26 27 43 l27 33 22 -27 c14 -16
29 -24 39 -20z m815 19 c0 -2 -10 -9 -22 -15 -22 -11 -22 -10 -4 4 21 17 26
19 26 11z m170 -5 c0 -5 -5 -10 -11 -10 -5 0 -7 5 -4 10 3 6 8 10 11 10 2 0 4
-4 4 -10z m-265 -10 c-3 -5 -10 -10 -15 -10 -15 0 -99 -60 -110 -78 -5 -9 -10
-13 -10 -9 -1 22 38 60 84 82 58 28 59 29 51 15z m-635 -25 c14 -8 19 -14 10
-14 -8 0 -24 6 -34 14 -25 19 -9 19 24 0z m657 -1 c-3 -3 -12 -6 -20 -8 -8 -1
-22 -8 -31 -15 -10 -8 -16 -9 -16 -3 0 6 7 15 15 19 17 10 60 15 52 7z m-612
-38 c17 7 39 -32 30 -53 -5 -14 -7 -14 -19 2 -8 11 -20 16 -30 12 -22 -9 -20
-33 5 -50 l20 -15 -22 -51 c-12 -28 -26 -51 -31 -51 -5 0 -7 -4 -3 -10 9 -15
-23 -82 -36 -74 -7 4 -10 3 -7 -2 3 -5 1 -20 -4 -34 -10 -24 -11 -23 -24 20
-13 44 -13 48 27 150 23 58 46 111 52 118 5 7 7 15 4 19 -4 3 -1 13 5 21 7 8
14 10 16 4 2 -6 9 -9 17 -6z m502 -17 c-9 -6 -18 -20 -18 -32 -1 -18 -2 -19
-6 -4 -5 19 25 62 36 51 3 -3 -2 -10 -12 -15z m-427 1 c0 -5 -2 -10 -4 -10 -3
0 -8 5 -11 10 -3 6 -1 10 4 10 6 0 11 -4 11 -10z m245 -118 c-2 -2 -20 8 -39
23 -30 23 -39 25 -51 15 -21 -18 -27 -8 -15 24 l10 27 50 -43 c27 -23 47 -44
45 -46z m185 34 c0 -3 -4 -8 -10 -11 -5 -3 -10 -1 -10 4 0 6 5 11 10 11 6 0
10 -2 10 -4z m-107 -87 c-8 -8 -13 -7 -18 2 -5 8 -4 10 3 5 7 -4 12 -2 12 5 0
7 3 9 7 6 4 -4 2 -12 -4 -18z m337 13 c0 -4 -11 -24 -25 -44 -14 -20 -25 -46
-25 -56 0 -11 -7 -25 -15 -32 -8 -7 -15 -18 -15 -24 0 -6 -9 -19 -19 -28 -18
-15 -19 -15 -19 18 0 21 12 51 32 80 17 26 38 58 46 70 14 23 40 33 40 16z
m-2051 -86 c10 -23 36 -68 57 -101 21 -33 45 -79 54 -102 19 -50 161 -185 225
-214 68 -31 105 -25 152 24 22 23 46 53 53 65 6 13 14 21 17 18 10 -9 -38 -75
-85 -117 -46 -41 -179 -110 -256 -133 -22 -6 -41 -16 -43 -21 -1 -6 25 -41 60
-79 78 -86 90 -85 164 11 96 124 102 130 113 113 14 -22 12 -33 -4 -27 -20 8
-37 -15 -26 -33 12 -20 1 -33 -16 -19 -11 9 -14 9 -14 0 0 -7 -5 -9 -11 -5 -7
4 -10 1 -7 -7 3 -8 -1 -26 -9 -41 -14 -30 -29 -39 -19 -12 3 9 2 12 -5 9 -5
-4 -7 -16 -3 -27 5 -16 3 -20 -10 -15 -8 3 -18 1 -22 -5 -5 -7 -2 -8 6 -3 22
13 4 -21 -38 -75 -23 -30 -44 -48 -56 -47 -10 1 -21 -4 -23 -11 -3 -8 1 -10
14 -6 15 6 16 4 6 -7 -11 -10 -15 -11 -25 0 -11 10 -9 16 7 30 21 17 31 41 17
41 -4 0 -13 -9 -20 -21 -10 -15 -20 -19 -38 -15 -19 5 -24 2 -24 -11 0 -32
-19 7 -26 55 -7 48 -14 52 -31 16 -10 -22 -10 -25 3 -20 8 3 14 -1 14 -9 0 -8
-3 -14 -7 -13 -15 3 -68 -15 -80 -28 -17 -17 -16 -34 2 -34 19 0 19 -19 1 -56
-8 -16 -19 -41 -25 -57 -6 -15 -14 -26 -18 -25 -15 4 -76 -14 -129 -39 -30
-13 -59 -21 -66 -17 -7 4 -10 4 -6 -1 5 -5 -3 -23 -16 -40 -21 -27 -23 -34
-11 -46 12 -12 10 -19 -15 -46 -29 -32 -40 -33 -40 -2 0 10 -10 24 -22 30 -28
15 -46 -7 -54 -73 -7 -53 -15 -59 -32 -25 -11 20 -11 19 -6 -10 7 -40 -10 -44
-50 -12 -48 38 -56 67 -59 221 l-2 143 -40 22 c-33 19 -50 22 -94 18 -67 -7
-103 -24 -51 -25 19 0 56 -7 82 -14 25 -8 57 -13 70 -10 13 2 2 -4 -24 -13
-46 -16 -50 -16 -130 7 -46 12 -98 25 -115 28 -20 2 -33 10 -33 19 0 8 4 12 9
8 5 -3 12 -1 16 5 3 5 0 10 -8 10 -12 0 -13 8 -5 43 6 23 11 57 11 76 l0 34
25 -29 c23 -27 22 -26 -3 19 -23 41 -26 52 -16 73 6 14 14 57 17 97 7 83 24
129 66 173 29 31 29 32 14 68 -10 25 -11 36 -4 36 7 0 3 7 -8 15 -16 13 -17
16 -4 25 23 15 50 12 166 -15 121 -29 117 -28 109 -16 -9 15 14 24 29 12 10
-8 43 -1 132 30 66 22 133 49 149 59 33 20 76 66 73 78 -5 23 16 151 24 146 5
-4 18 -25 27 -48z m-202 -48 c-3 -8 -6 -5 -6 6 -1 11 2 17 5 13 3 -3 4 -12 1
-19z m-38 -92 c-9 -8 -10 -3 -5 23 3 18 7 45 8 60 1 14 3 4 5 -23 3 -30 0 -53
-8 -60z m1421 98 c0 -3 -5 -15 -11 -26 -8 -15 -8 -19 0 -14 6 4 11 2 11 -4 0
-12 -28 -25 -37 -17 -8 8 17 67 28 67 5 0 9 -3 9 -6z m460 -9 c-7 -9 -15 -13
-19 -10 -3 3 1 10 9 15 21 14 24 12 10 -5z m74 -11 c5 -14 4 -15 -9 -4 -17 14
-19 20 -6 20 5 0 12 -7 15 -16z m-2027 -26 c-3 -8 -6 -5 -6 6 -1 11 2 17 5 13
3 -3 4 -12 1 -19z m145 -68 c3 -16 1 -30 -4 -30 -4 0 -8 14 -8 30 0 17 2 30 4
30 2 0 6 -13 8 -30z m2098 21 c0 -5 -7 -17 -16 -25 -16 -17 -13 -19 21 -17 11
0 1 -8 -22 -19 -24 -10 -43 -22 -43 -25 0 -3 4 -3 10 0 6 3 7 -1 4 -9 -9 -24
-21 -19 -27 11 -4 21 2 35 26 60 32 33 47 41 47 24z m-2133 -23 c-3 -8 -6 -5
-6 6 -1 11 2 17 5 13 3 -3 4 -12 1 -19z m2764 -9 c-9 -22 -10 -22 -10 -3 -1
11 2 24 6 27 12 12 14 0 4 -24z m-1431 7 c0 -3 -4 -8 -10 -11 -5 -3 -10 -1
-10 4 0 6 5 11 10 11 6 0 10 -2 10 -4z m-525 -171 c17 -13 17 -17 5 -28 -21
-19 -70 -38 -70 -28 0 12 34 71 40 71 3 -1 14 -7 25 -15z m276 -18 c1 -20 1
-20 8 3 7 24 7 24 30 -13 12 -20 26 -35 31 -32 10 6 40 -22 40 -38 0 -7 -7
-21 -15 -31 -8 -10 -12 -23 -9 -27 3 -5 -2 -22 -11 -38 -11 -22 -12 -32 -3
-37 6 -4 8 -3 4 4 -3 6 0 14 7 19 8 4 22 20 32 36 9 15 21 27 25 27 13 0 -1
-152 -16 -180 -19 -34 -94 -118 -94 -104 0 6 8 22 18 35 22 28 82 127 82 134
0 11 -18 4 -41 -17 -13 -12 -37 -33 -53 -47 l-29 -26 7 25 c4 14 9 59 11 100
l5 75 -19 -50 c-29 -81 -31 -83 -27 -25 5 54 4 54 -7 18 -15 -46 -31 -63 -22
-23 6 26 4 25 -19 -14 -15 -24 -29 -54 -32 -67 -4 -14 -14 -29 -23 -34 -15 -9
-15 -11 1 -23 15 -12 14 -16 -13 -48 -30 -35 -36 -49 -20 -49 13 0 -20 -91
-35 -97 -7 -2 -10 -11 -8 -18 3 -7 -5 -19 -18 -26 -13 -6 -26 -17 -30 -23 -5
-7 -8 -7 -8 2 0 8 -15 1 -37 -17 -21 -17 -42 -31 -47 -31 -13 0 -169 -72 -176
-81 -3 -4 -27 -17 -55 -30 -27 -12 -53 -28 -57 -33 -5 -7 -8 -7 -8 2 0 6 -9
12 -20 12 -11 0 -20 5 -20 11 0 7 9 9 21 6 13 -3 19 -1 16 6 -2 7 -13 13 -25
15 -25 4 -30 22 -7 22 8 0 15 5 15 11 0 6 -9 8 -20 4 -11 -3 -20 -2 -20 4 0 5
9 12 20 16 11 3 44 34 75 67 30 34 55 56 55 50 0 -7 8 -12 18 -12 16 1 16 1 0
11 -10 5 -18 13 -18 18 0 4 27 39 61 77 33 38 69 86 80 107 14 27 26 37 43 37
39 0 108 42 123 75 13 29 14 29 8 -19 -8 -59 9 -55 19 4 5 30 18 52 50 83 40
38 76 110 76 151 0 45 79 87 81 43z m1803 14 c3 -5 -1 -11 -9 -14 -9 -4 -12
-1 -8 9 6 16 10 17 17 5z m-2027 -36 c-4 -8 -2 -17 3 -20 5 -3 7 -12 4 -20 -4
-8 -10 -12 -15 -9 -5 3 -9 1 -9 -5 0 -5 -10 -11 -22 -13 -20 -3 -22 -8 -20
-36 3 -31 2 -33 -20 -27 -51 16 -50 18 36 113 31 34 52 42 43 17z m1118 -49
c-21 -32 -53 -38 -33 -6 7 11 16 20 20 20 5 0 8 8 8 17 0 12 3 14 11 6 8 -8 6
-18 -6 -37z m-1140 -36 c3 -5 2 -10 -4 -10 -5 0 -13 5 -16 10 -3 6 -2 10 4 10
5 0 13 -4 16 -10z m1095 -15 c-11 -13 -7 -15 26 -16 l39 -1 -37 -12 c-20 -6
-45 -21 -56 -33 -11 -13 -28 -22 -38 -22 -16 1 -16 2 -2 6 10 2 15 10 11 19
-3 8 7 27 23 43 30 30 55 42 34 16z m295 -63 c-5 -6 -73 50 -74 61 -1 4 17 -7
39 -24 22 -18 38 -34 35 -37z m36 -24 c-12 -4 -37 -7 -54 -6 -18 1 -88 -2
-157 -6 -69 -4 -123 -6 -120 -3 6 6 114 16 233 22 49 2 91 6 94 9 3 3 10 3 16
-1 6 -3 0 -10 -12 -15z m-1466 -1 c13 -10 15 -16 6 -21 -17 -11 -41 0 -41 19
0 19 11 19 35 2z m1495 -17 c0 -5 -5 -10 -11 -10 -5 0 -7 5 -4 10 3 6 8 10 11
10 2 0 4 -4 4 -10z m-1475 -36 c-27 -20 -39 -5 -13 16 14 11 24 14 27 8 2 -6
-4 -17 -14 -24z m1045 5 c0 -6 -9 -22 -19 -35 -25 -31 -39 -13 -17 21 17 26
36 33 36 14z m755 -109 c-3 -5 -12 -10 -18 -10 -7 0 -6 4 3 10 19 12 23 12 15
0z m-1345 -9 c0 -9 -90 -51 -110 -51 -6 0 -8 5 -5 10 3 6 16 10 28 10 12 0 36
9 52 20 34 23 35 23 35 11z m1669 -58 c1 -7 -3 -13 -7 -13 -4 0 -8 15 -9 33
-2 26 0 28 7 12 5 -11 9 -26 9 -32z m-416 -34 c4 -16 3 -18 -9 -8 -16 13 -19
29 -5 29 5 0 11 -9 14 -21z m407 -15 c0 -8 -4 -12 -10 -9 -5 3 -10 10 -10 16
0 5 5 9 10 9 6 0 10 -7 10 -16z m-2486 -66 c-4 -6 -10 -5 -16 3 -7 11 -8 9 -4
-4 6 -20 -18 -52 -32 -43 -9 5 -42 -28 -54 -54 -5 -12 -7 -11 -7 3 -1 10 20
43 46 72 36 40 51 51 60 43 7 -6 10 -15 7 -20z m2186 28 c0 -2 -7 -7 -16 -10
-8 -3 -12 -2 -9 4 6 10 25 14 25 6z m-1665 -25 c-3 -6 -11 -11 -17 -11 -6 0
-6 6 2 15 14 17 26 13 15 -4z m1757 -58 c6 -7 8 -13 3 -14 -6 0 -18 -2 -27 -4
-10 -2 -18 1 -18 7 0 6 -9 8 -21 5 -15 -4 -18 -2 -10 7 13 15 56 15 73 -1z
m-3186 -19 l93 -26 -20 -21 c-14 -16 -16 -23 -7 -29 8 -4 18 -2 24 7 15 20 20
19 20 -4 0 -11 -3 -18 -7 -15 -4 2 -9 -6 -12 -17 -4 -15 -11 -20 -21 -16 -16
6 -23 -7 -8 -16 4 -2 1 -2 -6 0 -22 5 -33 -7 -19 -21 6 -8 18 -11 26 -8 10 4
12 1 6 -8 -6 -10 -4 -12 8 -7 10 4 17 2 17 -4 0 -7 -14 -10 -35 -7 -30 3 -36
1 -41 -18 -4 -15 -11 -21 -22 -18 -15 5 -15 4 1 -9 28 -23 20 -26 -28 -8 -46
18 -67 31 -47 31 7 0 12 5 12 11 0 5 -4 7 -10 4 -6 -4 -11 7 -11 24 -1 17 -2
37 -3 44 -1 7 9 11 26 9 23 -2 26 1 24 27 -2 34 -16 55 -16 25 0 -16 -2 -16
-16 4 -9 13 -13 26 -10 29 3 4 6 1 6 -6 0 -7 5 -9 11 -6 7 5 4 14 -8 28 -17
20 -17 20 2 13 14 -5 17 -4 10 3 -6 6 -23 12 -37 13 -15 1 -24 6 -22 10 8 12
21 10 120 -18z m2834 -19 c-7 -9 -15 -13 -17 -11 -7 7 7 26 19 26 6 0 6 -6 -2
-15z m340 -15 c0 -5 -7 -7 -15 -4 -8 4 -15 8 -15 10 0 2 7 4 15 4 8 0 15 -4
15 -10z m40 6 c0 -2 -7 -6 -15 -10 -8 -3 -15 -1 -15 4 0 6 7 10 15 10 8 0 15
-2 15 -4z m-56 -44 c3 -5 -1 -9 -9 -9 -8 0 -12 4 -9 9 3 4 7 8 9 8 2 0 6 -4 9
-8z m-3294 -13 c0 -7 -11 -9 -30 -5 -19 3 -30 1 -30 -6 0 -6 -3 -9 -6 -5 -3 3
-3 10 1 16 8 15 65 14 65 0z m2878 -75 c-20 -69 -23 -101 -23 -254 l0 -175 58
-192 c31 -105 54 -198 51 -207 -15 -39 -36 -6 -56 89 -5 27 -18 76 -28 107
-41 127 -64 361 -48 491 7 57 57 231 65 223 2 -2 -7 -39 -19 -82z m472 56 c0
-5 -2 -10 -4 -10 -3 0 -8 5 -11 10 -3 6 -1 10 4 10 6 0 11 -4 11 -10z m-3341
-13 c6 -8 7 -17 3 -21 -4 -4 -7 -13 -7 -19 0 -14 -39 -16 -52 -2 -15 16 3 55
25 55 11 0 25 -6 31 -13z m3568 -64 c-4 -17 -4 -17 -12 0 -4 9 -4 25 0 35 8
16 8 16 12 0 3 -10 3 -26 0 -35z m-3657 17 c0 -5 -2 -10 -4 -10 -3 0 -8 5 -11
10 -3 6 -1 10 4 10 6 0 11 -4 11 -10z m75 -29 c3 -5 1 -12 -5 -16 -6 -4 -8
-11 -5 -16 4 -5 -3 -9 -13 -9 -18 0 -19 3 -9 25 13 26 22 31 32 16z m1345 -40
c-28 -55 -41 -59 -16 -5 12 24 24 44 29 44 4 0 -2 -18 -13 -39z m-1404 -15
c13 -4 24 -11 24 -16 0 -12 -52 7 -61 22 -4 6 -4 18 -1 27 6 13 7 12 10 -6 2
-13 13 -24 28 -27z m3706 22 c-7 -7 -12 -8 -12 -2 0 14 12 26 19 19 2 -3 -1
-11 -7 -17z m-2943 -27 c-7 -10 -21 -24 -33 -31 -15 -9 -12 -3 8 19 34 35 41
39 25 12z m-604 -1 c8 -13 -5 -13 -25 0 -13 8 -13 10 2 10 9 0 20 -4 23 -10z
m-118 -82 c-3 -8 -6 -5 -6 6 -1 11 2 17 5 13 3 -3 4 -12 1 -19z m88 13 c3 -5
1 -12 -5 -16 -5 -3 -10 1 -10 9 0 18 6 21 15 7z m549 -22 c-10 -11 -28 -26
-39 -31 -12 -7 -7 3 14 26 36 37 59 42 25 5z m3023 -121 c-2 -29 -3 -6 -3 52
0 58 1 81 3 53 2 -29 2 -77 0 -105z m-2924 112 c3 -11 1 -18 -4 -14 -5 3 -9
12 -9 20 0 20 7 17 13 -6z m-718 -10 c3 -6 -1 -7 -9 -4 -18 7 -21 14 -7 14 6
0 13 -4 16 -10z m3255 -10 c-8 -5 -22 -10 -30 -10 -13 0 -13 1 0 10 8 5 22 10
30 10 13 0 13 -1 0 -10z m-3228 -33 c7 -6 24 -13 38 -13 14 -1 48 -17 75 -35
l50 -34 -49 -8 c-81 -13 -123 -54 -58 -57 130 -7 124 -8 146 33 26 49 39 35
34 -39 -3 -53 -6 -59 -36 -77 -36 -21 -53 -17 -32 8 10 13 9 15 -9 15 -35 0
-113 -20 -148 -38 -39 -19 -44 -51 -12 -70 38 -24 6 -33 -38 -11 -23 11 -54
19 -70 17 l-28 -3 38 -26 38 -27 -33 3 c-27 2 -36 9 -51 39 -9 20 -21 36 -27
36 -5 0 2 16 15 36 26 38 28 47 25 101 -2 41 40 151 60 156 31 9 59 7 72 -6z
m487 -34 c-19 -21 -41 -53 -48 -71 -7 -17 -17 -32 -22 -32 -4 0 -2 14 5 31 15
35 86 123 93 115 3 -3 -10 -22 -28 -43z m1064 -7 c-10 -13 -22 -21 -27 -18 -5
3 1 13 13 24 31 24 35 23 14 -6z m26 -22 c-6 -16 -13 -24 -16 -17 -5 13 16 58
23 50 3 -2 -1 -17 -7 -33z m73 -24 c16 0 17 3 8 20 -6 11 -8 20 -6 20 3 0 10
-10 17 -21 13 -25 -1 -39 -38 -39 -20 0 -23 5 -22 38 1 37 1 37 12 10 6 -17
18 -28 29 -28z m-54 -47 c-2 -12 -13 -18 -33 -18 l-30 0 -3 -72 c-3 -65 -5
-73 -22 -73 -18 0 -20 7 -20 76 l0 77 -30 -6 c-25 -6 -30 -3 -30 13 0 18 7 20
86 20 76 0 85 -2 82 -17z m82 -17 c0 -31 3 -34 37 -39 48 -8 55 -2 47 39 -5
30 -4 34 15 34 20 0 21 -5 21 -93 0 -66 -4 -99 -15 -113 -13 -18 -14 -16 -15
26 0 58 -7 66 -52 72 -37 4 -37 4 -40 -36 -2 -29 -8 -42 -20 -44 -14 -3 -17 9
-20 92 -3 94 -2 96 20 96 18 0 22 -5 22 -34z m290 19 c0 -11 -11 -15 -41 -15
-33 0 -40 -3 -37 -17 2 -10 14 -20 28 -23 34 -7 37 -30 4 -30 -37 0 -28 -32
14 -45 22 -6 32 -15 32 -28 0 -17 -5 -19 -32 -13 -56 11 -78 41 -78 106 0 31
-5 61 -12 68 -9 9 3 12 55 12 53 0 67 -3 67 -15z m-1386 -154 c19 -16 12 -31
-12 -24 -13 3 -18 -2 -20 -24 -2 -33 -9 -67 -17 -94 -6 -17 -1 -19 59 -19 l66
0 0 -222 -1 -223 -34 -38 -35 -37 -93 47 c-115 60 -111 58 -102 43 4 -7 3 -15
-2 -19 -5 -3 -19 -20 -31 -38 l-22 -32 -93 46 c-182 89 -202 122 -212 336 l-6
137 60 0 59 0 4 -132 c3 -116 6 -138 25 -168 18 -30 85 -80 107 -80 3 0 6 86
6 190 l0 190 55 0 c51 0 55 -2 61 -27 3 -16 7 -33 9 -40 2 -6 28 -22 57 -35
49 -23 51 -25 26 -30 -18 -3 -25 -1 -21 8 3 9 -2 11 -16 7 -12 -3 -21 -12 -21
-19 0 -8 -7 -17 -15 -20 -8 -4 -15 -13 -15 -22 0 -12 4 -11 20 6 22 23 32 27
43 15 9 -9 -33 -53 -50 -53 -7 0 -13 -9 -13 -20 l0 -21 22 21 c24 22 43 27 32
8 -5 -10 -4 -10 6 -1 11 10 16 9 27 -5 14 -16 14 -16 9 1 -3 9 -4 17 -2 17 3
0 11 3 19 6 10 3 17 -1 19 -12 1 -10 3 26 3 80 0 90 -2 100 -23 117 -17 13
-29 16 -46 9 -17 -6 -23 -5 -23 6 0 8 8 14 18 14 16 0 29 19 29 43 0 6 -7 2
-16 -9 -11 -14 -14 -15 -11 -3 3 9 -3 22 -12 29 -16 11 -17 16 -4 52 8 22 11
43 8 47 -9 8 -35 -29 -35 -50 0 -10 -4 -20 -9 -23 -11 -7 -6 36 8 63 11 19 19
21 76 18 35 -2 71 -9 79 -16z m46 -12 c-12 -8 -10 -9 10 -7 15 2 32 -4 42 -16
19 -20 14 -46 -5 -27 -6 6 -15 11 -21 11 -5 0 -1 -6 10 -14 25 -19 17 -24 -28
-18 -33 4 -38 8 -38 31 0 28 16 51 35 51 5 0 3 -5 -5 -11z m317 -3 c4 -3 -11
-6 -32 -6 -22 0 -46 -7 -57 -17 -14 -13 -21 -14 -30 -5 -9 9 -9 15 1 25 10 10
11 9 6 -5 -9 -24 7 -23 22 1 9 15 21 19 48 16 20 -2 39 -6 42 -9z m-27 -26 c0
-5 -9 -10 -20 -10 -10 0 -23 -8 -29 -17 -5 -10 -13 -15 -17 -10 -11 10 26 47
48 47 10 0 18 -4 18 -10z m704 -5 c-4 -8 -8 -15 -10 -15 -2 0 -4 7 -4 15 0 8
4 15 10 15 5 0 7 -7 4 -15z m-1498 -25 c30 0 37 -5 50 -35 19 -45 18 -48 -8
-33 -13 6 -50 20 -83 29 -33 10 -52 18 -42 18 9 1 17 8 17 17 0 11 5 14 16 10
9 -3 31 -6 50 -6z m3274 -5 c17 -20 5 -45 -20 -45 -11 0 -23 7 -26 15 -6 15
11 45 26 45 4 0 13 -7 20 -15z m-3385 -18 c7 -7 4 -8 -8 -3 -10 3 -27 6 -38 6
-10 0 -19 5 -19 10 0 12 50 2 65 -13z m745 19 c0 -2 -7 -7 -16 -10 -8 -3 -12
-2 -9 4 6 10 25 14 25 6z m-316 -48 c-1 -13 -3 -27 -3 -32 -1 -5 -4 -6 -8 -2
-10 10 -11 46 -1 46 5 0 6 5 2 12 -4 6 -3 8 3 5 5 -3 9 -16 7 -29z m256 -53
c-7 -8 -17 -12 -22 -9 -6 4 -4 10 6 16 23 13 20 31 -4 23 -25 -8 -27 13 -2 31
15 11 18 9 26 -16 6 -21 5 -34 -4 -45z m-143 33 c-3 -8 -6 -5 -6 6 -1 11 2 17
5 13 3 -3 4 -12 1 -19z m713 12 c0 -5 -2 -10 -4 -10 -3 0 -8 5 -11 10 -3 6 -1
10 4 10 6 0 11 -4 11 -10z m-56 -30 l206 -1 0 -49 0 -50 -89 0 -90 0 -3 -47
-3 -48 -39 73 c-21 40 -40 71 -42 70 -1 -2 17 -53 41 -113 43 -106 44 -114 45
-217 0 -93 -2 -108 -16 -108 -15 0 -15 -2 0 -22 21 -29 48 -89 43 -94 -2 -2
-18 18 -36 46 -28 43 -36 49 -62 46 l-29 -3 -1 171 c-1 94 0 188 1 208 l1 37
-93 3 -93 3 -3 42 c-4 50 24 91 44 66 9 -10 55 -13 218 -13z m-324 -260 l0
-259 -55 37 -54 37 -1 207 c0 202 0 207 -22 222 -21 15 -18 16 55 16 l77 0 0
-260z m980 210 l0 -50 -65 0 c-61 0 -65 1 -65 23 0 12 -4 33 -8 47 -6 21 -8
19 -12 -20 -5 -45 -5 -45 -47 -48 l-43 -3 0 -100 c0 -163 45 -216 188 -221
l72 -2 0 -46 0 -45 -50 1 c-91 3 -93 3 -86 20 3 8 2 12 -4 9 -6 -4 -10 7 -10
24 0 46 -19 47 -26 1 -6 -35 -9 -40 -28 -34 -35 11 -55 34 -65 78 l-11 41 5
-47 c3 -27 8 -60 11 -75 l7 -28 -20 25 c-11 14 -23 36 -27 50 -4 14 -17 44
-29 68 -19 36 -26 42 -54 42 -41 0 -43 16 -3 25 l30 6 -7 142 c-5 113 -10 145
-22 154 -13 10 23 12 177 13 l192 0 0 -50z m216 -50 l0 -95 113 -12 c62 -6
115 -13 117 -16 2 -2 -2 -21 -10 -43 -15 -43 -5 -41 -143 -29 l-83 7 0 -89 c0
-86 -1 -90 -30 -118 -26 -25 -30 -26 -30 -9 0 15 -2 16 -9 5 -5 -7 -14 -10
-20 -7 -8 5 -11 80 -11 238 0 204 -2 234 -17 250 -17 18 -15 19 52 16 l70 -3
1 -95z m352 -163 c-3 -253 -4 -264 -25 -290 -12 -16 -34 -37 -48 -49 l-26 -21
3 99 c2 55 7 108 12 119 6 16 6 17 -3 5 -8 -11 -11 -3 -11 38 0 33 -4 51 -10
47 -5 -3 -10 -3 -10 0 0 7 36 152 46 182 3 10 -2 7 -10 -7 -15 -24 -15 -21
-16 58 l0 82 50 0 51 0 -3 -263z m432 223 l0 -39 -102 -3 -103 -3 -3 -47 -3
-48 76 0 76 0 -3 -47 -3 -48 -70 0 c-69 0 -70 0 -67 -25 9 -68 87 -130 164
-130 l38 0 0 -44 0 -45 -48 4 c-78 6 -152 39 -210 95 -57 56 -79 89 -65 99 11
8 4 301 -8 301 -5 0 -9 5 -9 10 0 6 63 10 170 10 l170 0 0 -40z m470 -9 c0
-85 -10 -111 -62 -159 -26 -26 -48 -50 -48 -55 0 -14 108 -123 180 -182 65
-53 65 -54 62 -99 l-4 -45 -29 14 c-48 25 -225 172 -272 226 -30 34 -51 50
-63 47 -17 -3 -19 -15 -22 -106 l-3 -102 -39 0 c-21 0 -45 -3 -53 -6 -13 -5
-16 17 -17 153 -1 87 -2 166 -2 175 1 11 -5 15 -16 12 -15 -5 -15 -4 1 9 13
11 17 29 17 79 0 36 -5 69 -12 76 -9 9 32 12 185 12 l197 0 0 -49z m-2820 17
c0 -5 -4 -6 -10 -3 -5 3 -10 1 -10 -6 0 -8 -3 -9 -13 0 -8 6 -16 10 -18 8 -2
-1 2 3 9 10 15 12 42 7 42 -9z m10 -38 c0 -5 -5 -10 -11 -10 -5 0 -7 5 -4 10
3 6 8 10 11 10 2 0 4 -4 4 -10z m-15 -118 c-9 -9 -35 -11 -35 -3 0 14 12 20
26 14 8 -3 12 -8 9 -11z m192 -16 c-7 -21 -37 -19 -37 2 0 15 5 19 20 15 12
-3 19 -11 17 -17z m63 -1 c0 -8 -7 -15 -16 -15 -14 0 -14 3 -4 15 7 8 14 15
16 15 2 0 4 -7 4 -15z m2590 -15 c0 -5 -5 -10 -11 -10 -5 0 -7 5 -4 10 3 6 8
10 11 10 2 0 4 -4 4 -10z m-2635 -50 c5 -18 4 -22 -4 -14 -6 6 -14 21 -16 34
-6 30 10 14 20 -20z m-35 9 c0 -6 -4 -7 -10 -4 -5 3 -10 11 -10 16 0 6 5 7 10
4 6 -3 10 -11 10 -16z m75 -9 c3 -6 -1 -7 -9 -4 -18 7 -21 14 -7 14 6 0 13 -4
16 -10z m2349 -189 c3 -5 -1 -14 -9 -21 -13 -10 -15 -9 -15 9 0 21 14 28 24
12z m-1791 -261 c10 0 29 -12 42 -26 36 -39 35 -120 -1 -163 -22 -27 -32 -31
-75 -31 l-49 0 0 109 c0 71 4 111 11 113 8 3 6 16 -5 43 l-16 40 38 -43 c20
-23 45 -42 55 -42z m913 5 c-11 -25 -16 -69 -16 -131 0 -86 -2 -94 -19 -94
-17 0 -20 8 -23 47 -3 45 -4 47 -33 47 -29 0 -30 -2 -33 -47 -2 -33 -7 -47
-18 -47 -11 0 -14 18 -15 88 0 48 -2 97 -5 110 -3 18 1 22 20 22 21 0 23 -4
22 -42 -1 -41 0 -43 32 -46 32 -3 32 -3 32 42 0 38 3 46 18 46 11 0 24 12 31
26 18 41 24 21 7 -21z m-1718 -56 c7 -28 12 -62 12 -77 0 -43 17 -13 32 58 12
53 18 66 35 68 19 3 22 -5 34 -67 7 -39 15 -71 19 -71 4 0 13 30 20 66 11 59
30 87 47 71 3 -4 -7 -54 -22 -112 -25 -94 -31 -106 -49 -103 -16 2 -23 16 -34
60 -8 32 -17 56 -21 53 -4 -2 -14 -29 -21 -60 -10 -42 -18 -55 -31 -55 -19 0
-27 21 -63 163 -14 57 -14 57 8 57 19 0 25 -8 34 -51z m382 37 c0 -8 -4 -16
-9 -18 -11 -4 -19 -158 -9 -158 5 0 8 -7 8 -15 0 -10 -11 -15 -35 -15 -24 0
-35 5 -35 15 0 8 4 15 8 15 11 0 2 151 -9 166 -13 16 0 24 43 24 26 0 38 -4
38 -14z m150 -80 l0 -93 50 5 c46 4 50 3 50 -17 0 -19 -5 -21 -70 -21 l-70 0
0 110 c0 103 1 110 20 110 19 0 20 -7 20 -94z m1340 10 c0 -64 4 -87 16 -97
11 -9 20 -10 32 -2 13 8 18 29 20 97 3 78 5 86 22 86 16 0 20 -7 20 -36 0 -24
4 -33 12 -28 8 5 9 2 3 -12 -4 -10 -11 -41 -15 -68 -10 -71 -57 -104 -110 -76
-26 14 -40 63 -40 146 0 67 2 74 20 74 18 0 20 -7 20 -84z m295 64 c4 -12 20
-49 36 -83 l29 -62 -3 83 c-2 72 0 82 16 82 15 0 17 -12 17 -110 0 -109 0
-110 -24 -110 -20 0 -28 11 -52 68 -15 37 -31 71 -36 77 -4 5 -8 -26 -8 -68 0
-67 -2 -77 -17 -77 -16 0 -18 13 -21 110 l-4 110 30 0 c22 0 32 -6 37 -20z
m355 0 c0 -16 -7 -20 -30 -20 l-30 0 0 -90 c0 -89 0 -90 -25 -90 -25 0 -25 1
-25 90 l0 90 -30 0 c-23 0 -30 4 -30 20 0 18 7 20 85 20 78 0 85 -2 85 -20z
m-1220 -209 c13 -26 13 -31 -4 -31 -13 0 -26 20 -26 41 0 16 19 10 30 -10z"/>
<path d="M2655 4820 c-13 -5 -14 -9 -5 -9 8 0 24 4 35 9 13 5 14 9 5 9 -8 0
-24 -4 -35 -9z"/>
<path d="M2560 4780 c-13 -9 -13 -10 0 -10 8 0 22 5 30 10 13 9 13 10 0 10 -8
0 -22 -5 -30 -10z"/>
<path d="M2460 4720 c-9 -6 -10 -10 -3 -10 6 0 15 5 18 10 8 12 4 12 -15 0z"/>
<path d="M2440 4680 c-9 -6 -10 -10 -3 -10 6 0 15 5 18 10 8 12 4 12 -15 0z"/>
<path d="M2965 4670 c27 -12 43 -12 25 0 -8 5 -22 9 -30 9 -10 0 -8 -3 5 -9z"/>
<path d="M2760 4599 c-11 -7 -4 -8 25 -3 50 8 58 14 19 14 -16 0 -36 -5 -44
-11z"/>
<path d="M2545 4575 c-31 -15 -42 -24 -30 -24 11 -1 31 6 43 15 13 9 35 20 50
24 20 6 21 8 7 8 -11 0 -42 -10 -70 -23z"/>
<path d="M2486 4521 c-7 -10 49 -9 60 2 4 4 -7 7 -24 7 -17 0 -33 -4 -36 -9z"/>
<path d="M2706 4487 c3 -10 9 -15 12 -12 3 3 0 11 -7 18 -10 9 -11 8 -5 -6z"/>
<path d="M2758 4493 c7 -3 16 -2 19 1 4 3 -2 6 -13 5 -11 0 -14 -3 -6 -6z"/>
<path d="M2650 4460 c0 -5 9 -10 19 -10 11 0 23 5 26 10 4 6 -5 10 -19 10 -14
0 -26 -4 -26 -10z"/>
<path d="M2770 4460 c-8 -5 -10 -10 -5 -10 6 0 17 5 25 10 8 5 11 10 5 10 -5
0 -17 -5 -25 -10z"/>
<path d="M2888 4433 c7 -3 16 -2 19 1 4 3 -2 6 -13 5 -11 0 -14 -3 -6 -6z"/>
<path d="M2820 4420 c-13 -8 -13 -10 2 -10 9 0 20 5 23 10 8 13 -5 13 -25 0z"/>
<path d="M2542 4404 c8 -9 26 -14 39 -12 20 2 18 5 -15 15 -36 11 -38 11 -24
-3z"/>
<path d="M2786 4405 c4 -8 8 -15 10 -15 2 0 4 7 4 15 0 8 -4 15 -10 15 -5 0
-7 -7 -4 -15z"/>
<path d="M3070 4373 c0 -11 10 -28 21 -39 l22 -19 -18 35 c-23 45 -25 47 -25
23z"/>
<path d="M2570 4346 c0 -19 13 -27 28 -17 8 4 5 11 -8 19 -16 10 -20 10 -20
-2z"/>
<path d="M2800 4313 c0 -16 -5 -34 -11 -40 -8 -8 -8 -13 0 -17 6 -4 11 -15 11
-24 0 -12 -3 -13 -8 -5 -6 9 -16 4 -35 -16 -23 -25 -24 -31 -12 -41 23 -19 49
-7 62 30 15 43 17 127 3 135 -6 4 -10 -6 -10 -22z"/>
<path d="M3035 4320 c12 -41 27 -60 20 -25 -4 17 -11 35 -17 40 -7 7 -8 2 -3
-15z"/>
<path d="M2901 4194 c0 -11 3 -14 6 -6 3 7 2 16 -1 19 -3 4 -6 -2 -5 -13z"/>
<path d="M2872 4175 c0 -16 2 -22 5 -12 2 9 2 23 0 30 -3 6 -5 -1 -5 -18z"/>
<path d="M2981 4184 c0 -11 3 -14 6 -6 3 7 2 16 -1 19 -3 4 -6 -2 -5 -13z"/>
<path d="M3060 4173 c0 -6 8 -17 18 -24 16 -13 16 -13 2 6 -8 11 -16 22 -17
24 -2 2 -3 0 -3 -6z"/>
<path d="M2861 4124 c0 -11 3 -14 6 -6 3 7 2 16 -1 19 -3 4 -6 -2 -5 -13z"/>
<path d="M2900 4096 c0 -8 4 -17 9 -20 5 -4 7 3 4 14 -6 23 -13 26 -13 6z"/>
<path d="M3096 4095 c7 -18 6 -18 -9 -6 -15 12 -17 11 -17 -3 0 -21 18 -56 28
-56 10 0 9 67 -1 76 -5 5 -5 0 -1 -11z"/>
<path d="M2458 4072 c-3 -11 -2 -25 2 -32 11 -18 22 18 11 37 -7 13 -9 12 -13
-5z"/>
<path d="M3195 4050 c3 -5 15 -10 26 -10 11 0 17 5 14 10 -3 6 -15 10 -26 10
-11 0 -17 -4 -14 -10z"/>
<path d="M3365 4440 c3 -5 8 -10 11 -10 2 0 4 5 4 10 0 6 -5 10 -11 10 -5 0
-7 -4 -4 -10z"/>
<path d="M3377 4349 c7 -7 15 -10 18 -7 3 3 -2 9 -12 12 -14 6 -15 5 -6 -5z"/>
<path d="M3465 4270 c3 -5 8 -10 11 -10 2 0 4 5 4 10 0 6 -5 10 -11 10 -5 0
-7 -4 -4 -10z"/>
<path d="M1928 4073 c6 -2 18 -2 25 0 6 3 1 5 -13 5 -14 0 -19 -2 -12 -5z"/>
<path d="M1489 3823 c-13 -16 -12 -17 4 -4 9 7 17 15 17 17 0 8 -8 3 -21 -13z"/>
<path d="M1510 3798 c-26 -24 -32 -32 -15 -20 28 18 73 63 64 62 -2 -1 -24
-19 -49 -42z"/>
<path d="M3640 4101 c0 -5 5 -13 10 -16 6 -3 10 -2 10 4 0 5 -4 13 -10 16 -5
3 -10 2 -10 -4z"/>
<path d="M1757 3462 c-33 -4 -31 -21 5 -41 23 -13 29 -13 52 2 14 10 26 21 26
26 0 10 -44 17 -83 13z"/>
<path d="M1714 3371 c-35 -9 -54 -19 -54 -29 0 -5 142 -7 218 -3 26 2 10 21
-25 30 -43 12 -93 13 -139 2z"/>
<path d="M1743 3308 c-13 -6 -23 -14 -23 -18 0 -9 46 -30 65 -30 19 0 65 21
65 30 0 10 -48 30 -68 29 -9 0 -27 -5 -39 -11z"/>
<path d="M2717 3444 c-11 -11 -8 -26 3 -19 16 10 12 -12 -5 -29 -19 -18 -19
-26 -1 -26 8 0 17 11 20 25 7 27 -5 61 -17 49z"/>
<path d="M2628 3235 c-4 -4 -4 -13 -1 -21 3 -8 -1 -22 -8 -31 -13 -15 -12 -15
9 -2 24 15 24 15 13 42 -3 10 -10 15 -13 12z"/>
<path d="M1551 3076 c-9 -11 -9 -16 0 -22 7 -4 9 -3 5 4 -3 5 0 12 6 15 7 2
10 7 7 11 -3 4 -12 0 -18 -8z"/>
<path d="M1037 2820 c31 -20 135 -58 120 -44 -6 6 -98 47 -137 61 -8 2 0 -5
17 -17z"/>
<path d="M1305 2730 c-3 -4 -2 -16 2 -27 6 -16 5 -16 -10 -4 -23 18 -22 -2 1
-21 31 -28 236 -127 286 -138 27 -6 57 -15 67 -21 24 -13 71 18 63 41 -3 8 -8
26 -10 40 -7 35 -17 42 -61 45 -21 1 -69 12 -108 24 -38 12 -80 20 -92 18 -12
-2 -24 -1 -25 2 -6 12 -108 49 -113 41z"/>
<path d="M1705 2484 c-6 -32 -1 -54 9 -43 9 11 16 79 8 79 -6 0 -13 -16 -17
-36z"/>
<path d="M1113 2476 c13 -27 27 -25 27 5 0 12 -7 19 -19 19 -17 0 -18 -3 -8
-24z"/>
<path d="M1774 2491 c4 -6 12 -11 18 -11 6 0 21 -8 32 -17 20 -18 20 -18 5 7
-9 14 -26 27 -39 28 -14 2 -20 0 -16 -7z"/>
<path d="M1062 2431 c7 -11 22 -24 35 -30 36 -16 30 15 -7 34 -38 20 -43 19
-28 -4z"/>
<path d="M861 2411 c-9 -6 -10 -11 -2 -15 6 -4 11 -5 11 -1 0 3 17 -3 38 -13
38 -20 112 -37 112 -27 0 5 -91 48 -127 59 -10 3 -24 2 -32 -3z"/>
<path d="M1135 2371 c-3 -6 -23 -11 -43 -11 l-37 -1 35 -19 c32 -17 35 -17 39
-2 2 9 8 20 14 24 6 4 9 10 5 13 -3 4 -9 2 -13 -4z"/>
<path d="M1540 2316 c0 -2 11 -11 25 -20 14 -9 25 -13 25 -8 0 5 -11 14 -25
20 -14 6 -25 10 -25 8z"/>
<path d="M1290 2281 c0 -5 5 -13 10 -16 6 -3 10 -2 10 4 0 5 -4 13 -10 16 -5
3 -10 2 -10 -4z"/>
<path d="M1140 2210 c0 -5 4 -10 9 -10 5 0 16 -11 25 -25 16 -24 16 -27 -4
-52 -13 -17 -17 -30 -11 -36 5 -5 7 -15 5 -22 -3 -7 -1 -16 5 -20 7 -4 11 3
11 17 0 34 11 68 21 68 5 0 9 -6 9 -13 0 -8 9 -22 20 -32 27 -24 25 -13 -7 43
-40 72 -83 114 -83 82z"/>
<path d="M1395 2200 c10 -11 20 -20 23 -20 3 0 -3 9 -13 20 -10 11 -20 20 -23
20 -3 0 3 -9 13 -20z"/>
<path d="M1397 2059 c7 -7 15 -10 18 -7 3 3 -2 9 -12 12 -14 6 -15 5 -6 -5z"/>
<path d="M2506 2841 c-4 -5 -8 -31 -11 -58 -4 -48 0 -40 15 30 8 37 6 46 -4
28z"/>
<path d="M2291 2501 c-11 -20 -5 -31 16 -31 7 0 13 11 13 25 0 29 -15 33 -29
6z"/>
<path d="M2260 2435 c0 -8 2 -15 4 -15 2 0 6 7 10 15 3 8 1 15 -4 15 -6 0 -10
-7 -10 -15z"/>
<path d="M2300 2415 c0 -19 5 -35 10 -35 6 0 10 9 10 19 0 11 3 26 6 35 4 11
1 16 -10 16 -12 0 -16 -10 -16 -35z"/>
<path d="M985 2151 c-3 -6 -10 -9 -15 -6 -4 3 -13 -1 -19 -8 -8 -11 -6 -13 9
-12 23 1 47 21 38 30 -3 4 -9 1 -13 -4z"/>
<path d="M888 2093 c6 -2 10 -9 6 -14 -3 -5 -1 -9 5 -9 17 0 21 18 5 24 -9 3
-19 6 -22 5 -4 0 -1 -3 6 -6z"/>
<path d="M931 2071 c-9 -6 -9 -10 1 -18 9 -8 16 -7 25 2 9 10 9 14 -1 18 -7 3
-18 2 -25 -2z"/>
<path d="M780 1715 c0 -21 55 -104 63 -96 5 5 -6 27 -27 56 -20 25 -36 43 -36
40z"/>
<path d="M1395 1560 c3 -5 8 -10 11 -10 2 0 4 5 4 10 0 6 -5 10 -11 10 -5 0
-7 -4 -4 -10z"/>
<path d="M1360 1104 c0 -13 -9 -15 -44 -12 l-45 3 22 -23 c23 -25 68 -52 87
-52 7 0 10 19 9 50 -2 34 -7 50 -16 50 -7 0 -13 -7 -13 -16z"/>
<path d="M3930 1255 c0 -55 3 -65 18 -65 19 0 132 101 132 119 0 7 -25 11 -75
11 l-75 0 0 -65z"/>
<path d="M2120 564 c0 -74 1 -75 23 -68 37 11 47 25 47 66 0 52 -15 78 -45 78
-24 0 -25 -2 -25 -76z"/>
</g>
</svg>
